<svg xmlns="http://www.w3.org/2000/svg" width="900" height="900" viewBox="0 0 900 900">
  <rect width="900" height="900" rx="64" fill="#0c0d10"/>
  <rect x="55" y="55" width="790" height="790" rx="40" fill="none" stroke="#c9943f" stroke-width="8"/>
  <g fill="#e1b25f">
    <rect x="115" y="115" width="180" height="180"/><rect x="605" y="115" width="180" height="180"/><rect x="115" y="605" width="180" height="180"/>
    <rect x="160" y="160" width="90" height="90" fill="#0c0d10"/><rect x="650" y="160" width="90" height="90" fill="#0c0d10"/><rect x="160" y="650" width="90" height="90" fill="#0c0d10"/>
    <rect x="365" y="120" width="55" height="55"/><rect x="450" y="120" width="55" height="55"/><rect x="365" y="205" width="55" height="55"/>
    <rect x="365" y="340" width="55" height="55"/><rect x="450" y="340" width="55" height="55"/><rect x="535" y="340" width="55" height="55"/>
    <rect x="365" y="425" width="55" height="55"/><rect x="535" y="425" width="55" height="55"/><rect x="620" y="425" width="55" height="55"/>
    <rect x="280" y="510" width="55" height="55"/><rect x="365" y="510" width="55" height="55"/><rect x="450" y="510" width="55" height="55"/>
    <rect x="535" y="510" width="55" height="55"/><rect x="620" y="510" width="55" height="55"/><rect x="705" y="510" width="55" height="55"/>
    <rect x="365" y="595" width="55" height="55"/><rect x="450" y="595" width="55" height="55"/><rect x="535" y="595" width="55" height="55"/>
    <rect x="365" y="680" width="55" height="55"/><rect x="535" y="680" width="55" height="55"/><rect x="620" y="680" width="55" height="55"/>
  </g>
  <text x="450" y="845" text-anchor="middle" fill="#f5d28b" font-family="Arial, sans-serif" font-size="34" font-weight="700">GANTI DENGAN QR PEMBAYARAN ANDA</text>
</svg>
